<?xml version="1.0" encoding="utf-8"?>
<!-- Generator: Adobe Illustrator 22.0.1, SVG Export Plug-In . SVG Version: 6.00 Build 0)  -->
<svg version="1.1" id="Layer_1" xmlns="http://www.w3.org/2000/svg" xmlns:xlink="http://www.w3.org/1999/xlink" x="0px" y="0px"
	 viewBox="0 0 82 28" style="enable-background:new 0 0 82 28;" xml:space="preserve">
<style type="text/css">
	.st0{fill:#0A0A0A;}
</style>
<path id="path-1_1_" class="st0" d="M70.9,11.2c-3,0-5.4,2.5-5.4,5.5c0,3,2.4,5.5,5.4,5.5c3,0,5.4-2.5,5.4-5.5
	C76.3,13.7,73.9,11.2,70.9,11.2z M51,11.2c-3,0-5.4,2.5-5.4,5.5c0,3,2.4,5.5,5.4,5.5s5.4-2.5,5.4-5.5C56.4,13.7,54,11.2,51,11.2z
	 M31,11.2c-3,0-5.4,2.5-5.4,5.5c0,3,2.4,5.5,5.4,5.5c3,0,5.4-2.5,5.4-5.5C36.4,13.7,34,11.2,31,11.2z M70.9,28
	c-4.4,0-8.2-2.6-10-6.3c-1.8,3.7-5.6,6.3-10,6.3s-8.2-2.6-10-6.3c-1.8,3.7-5.6,6.3-10,6.3c-3.6,0-6.8-1.7-8.8-4.4c0,1.7,0,2.9,0,2.9
	c0,0.9-0.7,1.6-1.6,1.6h-2.6c-0.9,0-1.6-0.7-1.6-1.6v-9.7c0,0,0,0,0-0.1c0-3-2.4-5.5-5.4-5.5c-3,0-5.4,2.5-5.4,5.5
	c0,0.1,0,0.1,0,0.2c0,0,0,0.1,0,0.1v9.6c0,0,0,0,0,0C5.6,27.4,4.9,28,4.1,28H1.6C0.7,28,0,27.3,0,26.4c0,0,0-6.5,0-9.8
	c0,0,0-0.1,0-0.1C0.1,10.4,5,5.4,11.1,5.4c4.4,0,8.2,2.6,10,6.3c1.8-3.7,5.6-6.3,10-6.3c4.4,0,8.2,2.6,10,6.3
	c1.8-3.7,5.6-6.3,10-6.3c1.9,0,3.7,0.5,5.2,1.3V1.5c0-0.9,0.7-1.5,1.5-1.5h2.8c0.8,0,1.5,0.7,1.5,1.5v8.3c2-2.7,5.2-4.4,8.8-4.4
	C77,5.4,82,10.5,82,16.7C82,22.9,77,28,70.9,28z"/>
</svg>
